<?xml version="1.0" encoding="UTF-8"?>
<svg width="120px" height="37px" viewBox="0 0 120 37" version="1.1" xmlns="http://www.w3.org/2000/svg" xmlns:xlink="http://www.w3.org/1999/xlink">
    <!-- Generator: sketchtool 54.1 (76490) - https://sketchapp.com -->
    <title>2BBD5337-1781-4409-873B-0705CD6A39FA</title>
    <desc>Created with sketchtool.</desc>
    <g id="Page-1" stroke="none" stroke-width="1" fill="none" fill-rule="evenodd">
        <g id="Raw_Service-Detail-Page_DesktopR5" transform="translate(-723.000000, -2851.000000)" fill-rule="nonzero">
            <g id="tech" transform="translate(130.000000, 2754.000000)">
                <g id="logo2" transform="translate(580.000000, 90.000000)">
                    <g id="swift" transform="translate(13.000000, 7.000000)">
                        <g id="Group">
                            <path d="M36.5456615,10.1231385 C36.5435077,9.75556923 36.5394462,9.38818462 36.5292923,9.02018462 C36.5078769,8.21969231 36.4605538,7.41193846 36.3182769,6.62 C36.1739077,5.81575385 35.9379077,5.06793846 35.5659692,4.33735385 C35.2008615,3.61987692 34.7235692,2.96332308 34.1542154,2.39396923 C33.5849846,1.82461538 32.9284308,1.34738462 32.2106462,0.982092308 C31.4806769,0.610584615 30.7327385,0.374646154 29.9292308,0.230276923 C29.1368615,0.0875692308 28.3291077,0.0405538462 27.528,0.0188923077 C27.1601846,0.00892307692 26.7927385,0.00473846154 26.4250462,0.00246153846 C25.9886154,0 25.5518769,0 25.1155692,0 L15.4407385,0 L11.4326769,0 C10.9959385,0 10.5596923,0 10.1233846,0.00252307692 C9.75556923,0.0048 9.38769231,0.00898461538 9.02043077,0.0189538462 C8.82018462,0.0243692308 8.61950769,0.0313846154 8.41870769,0.0410461538 C7.81636923,0.0700923077 7.21310769,0.123323077 6.61913846,0.230338462 C6.01649231,0.338646154 5.44504615,0.4984 4.88910769,0.728246154 C4.70381538,0.8048 4.52018462,0.889230769 4.33766154,0.982092308 C3.79932308,1.25606154 3.29532308,1.59298462 2.83692308,1.98449231 C2.68412308,2.11501538 2.53636923,2.25156923 2.39409231,2.39390769 C1.82461538,2.96326154 1.34732308,3.61981538 0.982215385,4.33729231 C0.610276923,5.06787692 0.374584615,5.81569231 0.230092308,6.61993846 C0.0879384615,7.41187692 0.0406769231,8.21963077 0.0191384615,9.02012308 C0.00904615385,9.38812308 0.0048,9.75550769 0.0024,10.1230769 C-0.000369230769,10.5596308 3.38813179e-21,10.9962462 3.38813179e-21,11.4326769 L3.38813179e-21,17.3907692 L3.38813179e-21,25.1153846 C3.38813179e-21,25.5522462 -0.000430769231,25.9884308 0.0024,26.4252923 C0.0048,26.7928615 0.00904615385,27.1602462 0.0191384615,27.5276308 C0.0406769231,28.3285538 0.0878769231,29.1364923 0.230092308,29.9280615 C0.374584615,30.7320615 0.610276923,31.4805538 0.982215385,32.2109538 C1.34732308,32.9286154 1.82461538,33.5849846 2.39409231,34.1540923 C2.96313846,34.7236923 3.61987692,35.2008615 4.33772308,35.5664 C5.06775385,35.9379692 5.81563077,36.1736 6.61932308,36.3179692 C7.4112,36.4604923 8.21956923,36.5078769 9.02049231,36.5292923 C9.38775385,36.5390769 9.75563077,36.5434462 10.1234462,36.5455385 C10.5597538,36.5486769 10.996,36.5482462 11.4327385,36.5482462 L25.1155692,36.5482462 C25.5518769,36.5482462 25.9886154,36.5486769 26.4249846,36.5455385 C26.7926769,36.5434462 27.1601231,36.5390769 27.5279385,36.5292923 C28.3290462,36.5078769 29.1368,36.4604308 29.9291692,36.3179692 C30.7326769,36.1736 31.4806154,35.9379077 32.2105846,35.5664 C32.9283692,35.2009231 33.5849231,34.7236923 34.1541538,34.1540923 C34.7235077,33.5849231 35.2008615,32.9286154 35.5659077,32.2109538 C35.9378462,31.4805538 36.1738462,30.7321231 36.3182154,29.9280615 C36.4604923,29.1364923 36.5078154,28.3285538 36.5292308,27.5276308 C36.5393231,27.1602462 36.5433846,26.7929231 36.5456,26.4252923 C36.5484308,25.9884308 36.5481846,25.5522462 36.5481846,25.1153846 L36.5481846,11.4326769 C36.5482462,10.9962462 36.5484308,10.5596308 36.5456615,10.1231385 Z" id="Path" fill="#F05138"></path>
                            <path d="M28.9603692,22.5604308 C28.9595077,22.5593231 28.9587077,22.5585231 28.9577846,22.5574769 C28.9982154,22.4198769 29.0399385,22.2831385 29.0753231,22.1420923 C30.5922462,16.0984615 26.8900308,8.95323077 20.6251077,5.19107692 C23.3705231,8.91286154 24.5844308,13.4208 23.5059077,17.3630769 C23.4097231,17.7147077 23.2940923,18.0521846 23.1662769,18.3801846 C23.0275692,18.2890462 22.8528,18.1856 22.6180923,18.0561846 C22.6180923,18.0561846 16.3861538,14.2083692 9.63175385,7.40252308 C9.45452308,7.22387692 13.2334769,12.8037538 17.5221538,17.3347692 C15.5016,16.2008 9.87058462,12.1037538 6.30578462,8.84104615 C6.74375385,9.57144615 7.26467692,10.2747692 7.83729231,10.9518769 C10.8142154,14.7272 14.6964923,19.3853538 19.3476308,22.9622769 C16.0796923,24.9621538 11.4620308,25.1176615 6.86443077,22.9643692 C5.72726154,22.4314462 4.65821538,21.7884308 3.66861538,21.0578462 C5.61476923,24.1707692 8.61212308,26.8565538 12.2601846,28.4244923 C16.6106462,30.2940923 20.9368615,30.1673231 24.1590154,28.4551385 L24.1564923,28.4588308 C24.1712,28.4495385 24.1899077,28.4393846 24.2051692,28.4299692 C24.3374769,28.3588308 24.4688,28.2864 24.5972308,28.2099077 C26.1453538,27.4063385 29.2032,26.5910769 30.8444923,29.7845538 C31.2464615,30.5660923 32.1006154,26.4243077 28.9603692,22.5604308 Z" id="Path" fill="#FFFFFF"></path>
                        </g>
                        <g id="XMLID_1_" transform="translate(47.076923, 5.538462)" fill="#000000">
                            <g id="Group">
                                <path d="M3.72825517,18.1798769 C4.01994748,20.7154462 6.49040531,22.3778462 9.92131034,22.3778462 C13.1810976,22.3778462 15.5312952,20.7154462 15.5312952,18.4152 C15.5312952,16.4334769 14.107535,15.2238154 10.8305228,14.4180923 L7.65686021,13.6288615 C3.09351008,12.5203692 1.03469045,10.5049231 1.03469045,7.18012308 C1.03469045,3.08258462 4.68882812,0.244184615 9.88723767,0.244184615 C14.9306228,0.244184615 18.5162379,3.09907692 18.6364353,7.21384615 L15.2912777,7.21384615 C15.0336581,4.69476923 12.9407029,3.14929231 9.80149019,3.14929231 C6.69597294,3.14929231 4.53449523,4.71126154 4.53449523,6.99501538 C4.53449523,8.77507692 5.87288515,9.83341538 9.16674509,10.6563692 L11.808635,11.3279385 C16.9209828,12.5541538 19.0138751,14.5020923 19.0138751,18.0120615 C19.0138751,22.4791385 15.3938101,25.2838154 9.62955517,25.2838154 C4.27718992,25.2838154 0.623052255,22.4956308 0.348584881,18.18 L3.72825517,18.18 L3.72825517,18.1798769 Z" id="Path"></path>
                                <polygon id="Path" points="40.2640997 24.8804923 36.9013401 24.8804923 32.972735 11.4792615 32.9042125 11.4792615 28.9928324 24.8804923 25.6304499 24.8804923 20.6552101 7.33076923 23.9146202 7.33076923 27.3799751 21.4208 27.4488748 21.4208 31.3602549 7.33076923 34.5166926 7.33076923 38.4625225 21.4208 38.5314223 21.4208 41.9968401 7.33076923 45.2218003 7.33076923"></polygon>
                                <path d="M47.3931477,2.61181538 C47.3931477,1.55427692 48.2855125,0.6976 49.3662828,0.6976 C50.464278,0.6976 51.3562655,1.55427692 51.3562655,2.61181538 C51.3562655,3.67009231 50.464278,4.54332308 49.3662828,4.54332308 C48.2855125,4.54332308 47.3931477,3.67015385 47.3931477,2.61181538 Z M47.7365149,7.33076923 L51.0131499,7.33076923 L51.0131499,24.8804923 L47.7365149,24.8804923 L47.7365149,7.33076923 Z" id="Shape"></path>
                                <path d="M72.4111066,9.91729231 L72.4111066,7.33070769 L68.9456889,7.33070769 L68.9456889,3.13273846 L65.6859016,3.13273846 L65.6859016,7.33070769 L63.0267867,7.33070769 L59.4224379,7.33070769 L59.4224379,5.78596923 C59.4392857,4.224 60.0571202,3.56892308 61.532618,3.56892308 C62.0126531,3.56892308 62.4931281,3.61987692 62.8878557,3.68658462 L62.8878557,1.16750769 C62.3044082,1.08356923 61.7726355,1.03335385 61.1551782,1.03335385 C57.6553106,1.03335385 56.1799385,2.46116923 56.1799385,5.73575385 L56.1799385,7.33070769 L53.6754708,7.33070769 L53.6754708,9.91729231 L56.1799385,9.91729231 L56.1799385,24.8804308 L59.4393485,24.8804308 L59.4393485,9.91729231 L63.0268496,9.91729231 L65.6859645,9.91729231 L65.6859645,20.2792 C65.6859645,23.6715077 67.0071294,24.9808615 70.4380345,24.9808615 C71.175752,24.9808615 72.0164419,24.9306462 72.3939446,24.8467077 L72.3939446,22.2272 C72.1707748,22.2609231 71.5187419,22.3111385 71.1585899,22.3111385 C69.6318573,22.3111385 68.9458146,21.6058462 68.9458146,20.0273846 L68.9458146,9.91729231 L72.4111066,9.91729231 Z" id="Path"></path>
                            </g>
                        </g>
                    </g>
                </g>
            </g>
        </g>
    </g>
</svg>