<?xml version="1.0" encoding="utf-8"?>
<!-- Generator: Adobe Illustrator 23.1.1, SVG Export Plug-In . SVG Version: 6.00 Build 0)  -->
<svg version="1.1" id="Layer_1" xmlns="http://www.w3.org/2000/svg" xmlns:xlink="http://www.w3.org/1999/xlink" x="0px" y="0px"
	 viewBox="0 0 1040 227.2" style="enable-background:new 0 0 1040 227.2;" xml:space="preserve">
<style type="text/css">
	.st0{fill:#EC5744;}
	.st1{fill:#202025;}
</style>
<g id="Contentstack-logo">
	<g id="XMLID_115_">
		<g id="XMLID_206_">
			<g id="XMLID_220_">
				<g id="XMLID_231_">
					<path id="XMLID_232_" class="st0" d="M243.9,100.8c0,1.5-1.2,2.5-2.5,2.5h-46c-1.5,0-2.5-1.2-2.5-2.5v-5.1
						c0-1.5,1.2-2.5,2.5-2.5h46c1.5,0,2.5,1.2,2.5,2.5V100.8z"/>
				</g>
				<g id="XMLID_229_">
					<path id="XMLID_230_" class="st0" d="M264.5,116.1c0,1.5-1.2,2.5-2.5,2.5h-56.3c-1.5,0-2.5-1.2-2.5-2.5V111
						c0-1.5,1.2-2.5,2.5-2.5h56.1c1.5,0,2.5,1.2,2.5,2.5L264.5,116.1L264.5,116.1z"/>
				</g>
				<g id="XMLID_227_">
					<path id="XMLID_228_" class="st0" d="M279.8,131.5c0,1.5-1.2,2.5-2.5,2.5h-61.4c-1.5,0-2.5-1.2-2.5-2.5v-5.1
						c0-1.5,1.2-2.5,2.5-2.5h61.3c1.5,0,2.5,1.2,2.5,2.5L279.8,131.5L279.8,131.5z"/>
				</g>
				<g id="XMLID_225_">
					<path id="XMLID_226_" class="st0" d="M279.8,146.8c0,1.5-1.2,2.5-2.5,2.5h-61.4c-1.5,0-2.5-1.2-2.5-2.5v-5.1
						c0-1.5,1.2-2.5,2.5-2.5h61.3c1.5,0,2.5,1.2,2.5,2.5L279.8,146.8L279.8,146.8z"/>
				</g>
				<g id="XMLID_223_">
					<path id="XMLID_224_" class="st0" d="M264.5,162.1c0,1.5-1.2,2.5-2.5,2.5h-56.3c-1.5,0-2.5-1.2-2.5-2.5V157
						c0-1.5,1.2-2.5,2.5-2.5h56.1c1.5,0,2.5,1.2,2.5,2.5L264.5,162.1L264.5,162.1z"/>
				</g>
				<g id="XMLID_221_">
					<path id="XMLID_222_" class="st0" d="M243.9,177.5c0,1.5-1.2,2.5-2.5,2.5h-46c-1.5,0-2.5-1.2-2.5-2.5v-5.1
						c0-1.5,1.2-2.5,2.5-2.5h46c1.5,0,2.5,1.2,2.5,2.5V177.5z"/>
				</g>
			</g>
			<g id="XMLID_207_">
				<g id="XMLID_218_">
					<path id="XMLID_219_" class="st0" d="M157.1,54.9c0,1.5,1.2,2.5,2.5,2.5h46c1.5,0,2.5-1.2,2.5-2.5v-5.1c0-1.5-1.2-2.5-2.5-2.5
						h-45.8c-1.5,0-2.5,1.2-2.5,2.5L157.1,54.9L157.1,54.9z"/>
				</g>
				<g id="XMLID_216_">
					<path id="XMLID_217_" class="st0" d="M136.7,70.1c0,1.5,1.2,2.5,2.5,2.5h56.1c1.5,0,2.5-1.2,2.5-2.5V65c0-1.5-1.2-2.5-2.5-2.5
						h-56c-1.5,0-2.5,1.2-2.5,2.5v5.1H136.7z"/>
				</g>
				<g id="XMLID_214_">
					<path id="XMLID_215_" class="st0" d="M121.4,85.6c0,1.5,1.2,2.5,2.5,2.5h61.3c1.5,0,2.5-1.2,2.5-2.5v-5.1
						c0-1.5-1.2-2.5-2.5-2.5h-61.3c-1.5,0-2.5,1.2-2.5,2.5V85.6z"/>
				</g>
				<g id="XMLID_212_">
					<path id="XMLID_213_" class="st0" d="M121.4,100.8c0,1.5,1.2,2.5,2.5,2.5h61.3c1.5,0,2.5-1.2,2.5-2.5v-5.1
						c0-1.5-1.2-2.5-2.5-2.5h-61.3c-1.5,0-2.5,1.2-2.5,2.5V100.8z"/>
				</g>
				<g id="XMLID_210_">
					<path id="XMLID_211_" class="st0" d="M136.7,116.1c0,1.5,1.2,2.5,2.5,2.5h56.1c1.5,0,2.5-1.2,2.5-2.5V111
						c0-1.5-1.2-2.5-2.5-2.5h-56c-1.5,0-2.5,1.2-2.5,2.5v5.1H136.7z"/>
				</g>
				<g id="XMLID_208_">
					<path id="XMLID_209_" class="st0" d="M157.1,131.5c0,1.5,1.2,2.5,2.5,2.5h46c1.5,0,2.5-1.2,2.5-2.5v-5.1c0-1.5-1.2-2.5-2.5-2.5
						h-45.8c-1.5,0-2.5,1.2-2.5,2.5L157.1,131.5L157.1,131.5z"/>
				</g>
			</g>
		</g>
	</g>
	<g>
		<g id="XMLID_37_">
			<g id="XMLID_288_">
				<path id="XMLID_313_" class="st1" d="M339.8,143.4c-2.5,0.3-4.8,0.4-7.1,0.4c-6.5,0-11.3-0.9-14.4-2.8c-3.1-1.8-5.1-4.8-6.2-9
					c-1-4.1-1.5-10.4-1.5-18.8c0-8.2,0.6-14.5,1.6-18.7c1-4.3,3.1-7.2,6.2-9.1c3.1-1.9,7.9-2.8,14.4-2.8c2.2,0,4.6,0.1,6.9,0.4
					c2.4,0.3,4.4,0.7,5.9,1.2v10.4c-4.8-0.6-8.2-0.7-9.8-0.7c-4,0-6.6,0.4-8.1,1.2c-1.5,0.7-2.4,2.4-2.8,4.7
					c-0.4,2.4-0.6,6.9-0.6,13.4c0,6.5,0.1,11,0.6,13.4c0.4,2.4,1.3,4,2.8,4.7c1.5,0.7,4.1,1.2,8.1,1.2c3.4,0,6.8-0.3,10-0.7v10.4
					C344.4,142.7,342.3,143.1,339.8,143.4z"/>
				<path id="XMLID_310_" class="st1" d="M360.3,141.2c-3.1-1.8-5-4.6-5.9-8.5c-0.7-4-1.2-10.4-1.2-19.4c0-9,0.4-15.4,1.2-19.4
					c0.7-4,2.6-6.8,5.9-8.5c3.1-1.8,8.2-2.6,15.4-2.6c7.3,0,12.5,0.9,15.6,2.6c3.1,1.8,5,4.6,5.7,8.5c0.7,3.8,1.2,10.3,1.2,19.4
					s-0.4,15.6-1.2,19.4c-0.7,3.8-2.6,6.8-5.7,8.5c-3.1,1.8-8.2,2.6-15.6,2.6C368.5,143.9,363.3,143,360.3,141.2z M382,131.7
					c1-0.6,1.8-2.2,2.1-4.6c0.3-2.4,0.4-7.1,0.4-13.8c0-6.9-0.1-11.5-0.4-13.8c-0.3-2.4-1-3.8-2.1-4.6c-1-0.6-3.2-0.9-6.3-0.9
					c-3.1,0-5.3,0.3-6.3,0.9c-1,0.6-1.8,2.2-2.1,4.6c-0.3,2.4-0.4,7.1-0.4,13.8c0,6.9,0.1,11.5,0.4,13.8c0.3,2.4,1,3.8,2.1,4.6
					c1,0.6,3.2,0.9,6.3,0.9C378.8,132.6,380.8,132.3,382,131.7z"/>
				<path id="XMLID_308_" class="st1" d="M438.4,143.1l-17.5-34.1h-0.4v34.1h-12.9V83.5h13.7l16.5,31.3h0.4V83.5H451v59.6H438.4z"/>
				<path id="XMLID_306_" class="st1" d="M471.5,143.1v-48h-14.1V83.5h41.7v11.6H485v48H471.5z"/>
				<path id="XMLID_304_" class="st1" d="M505.8,143.1V83.5h35.8v11.2h-22.5v12.8h19.2v11.2h-19.2V132h22.5v11.2L505.8,143.1
					L505.8,143.1z"/>
				<path id="XMLID_302_" class="st1" d="M581.9,143.1l-17.5-34.1H564v34.1h-12.9V83.5h13.7l16.5,31.3h0.4V83.5h12.9v59.6H581.9z"/>
				<path id="XMLID_300_" class="st1" d="M614.8,143.1v-48h-14.1V83.5h41.7v11.6h-14.1v48H614.8z"/>
				<path id="XMLID_298_" class="st1" d="M648.5,142.4v-10.6c7.2,0.6,12.2,0.9,15.3,0.9c2.4,0,4.3-0.1,5.6-0.3
					c1.3-0.3,2.4-0.6,2.8-1.2c0.6-0.6,0.9-1.2,1-1.9c0.1-0.7,0.1-1.8,0.1-3.2c0-1.9-0.1-3.2-0.3-4c-0.3-0.7-0.7-1.3-1.5-1.8
					c-0.7-0.3-1.9-0.7-3.7-0.9l-9.5-1.3c-4.4-0.6-7.3-2.4-9-5.1c-1.6-2.8-2.4-6.8-2.4-11.9c0-5,0.9-8.8,2.5-11.5
					c1.6-2.6,4-4.4,6.9-5.3c2.9-0.9,6.6-1.3,11-1.3c5.4,0,11.2,0.6,16.9,1.8v10.4c-5.1-0.6-9.8-0.9-13.8-0.9c-4.3,0-7.1,0.4-8.2,1.2
					c-0.7,0.4-1.2,1-1.3,1.8c-0.1,0.7-0.3,1.8-0.3,3.4c0,1.6,0.1,2.8,0.3,3.5c0.1,0.7,0.6,1.2,1.2,1.5c0.6,0.3,1.6,0.6,3.2,0.9
					l10.3,1.5c2.4,0.3,4.3,0.9,5.7,1.8s2.8,2.2,3.8,4.1c1.2,2.5,1.8,6.2,1.8,10.9c0,5.6-0.7,9.7-2.4,12.6c-1.6,2.8-3.7,4.7-6.3,5.6
					c-2.6,0.9-6.2,1.3-10.6,1.3C660.4,143.9,653.9,143.3,648.5,142.4z"/>
				<path id="XMLID_296_" class="st1" d="M705.3,143.1v-48h-14V83.5h41.7v11.6H719v48H705.3z"/>
				<path id="XMLID_293_" class="st1" d="M768.5,143.1l-3.1-11.9h-17.6l-2.8,11.9h-13.5l16-59.6h18.8l15.9,59.6H768.5z M756.9,95.7
					h-0.6l-5.9,24.4h12.2L756.9,95.7z"/>
				<path id="XMLID_291_" class="st1" d="M816.1,143.4c-2.5,0.3-4.8,0.4-7.1,0.4c-6.5,0-11.3-0.9-14.4-2.8c-3.1-1.9-5.1-4.8-6.2-9
					c-1-4.1-1.5-10.4-1.5-18.8c0-8.2,0.6-14.5,1.6-18.7c1-4.3,3.1-7.2,6.2-9.1s7.9-2.8,14.4-2.8c2.2,0,4.6,0.1,6.9,0.4
					c2.4,0.3,4.4,0.7,5.9,1.2v10.4c-4.8-0.6-8.2-0.7-9.8-0.7c-4,0-6.6,0.4-8.1,1.2c-1.5,0.7-2.4,2.4-2.8,4.7
					c-0.4,2.4-0.6,6.9-0.6,13.4c0,6.5,0.1,11,0.6,13.4c0.4,2.4,1.3,4,2.8,4.7c1.5,0.7,4.1,1.2,8.1,1.2c3.4,0,6.8-0.3,10-0.7v10.4
					C820.6,142.7,818.6,143.1,816.1,143.4z"/>
				<path id="XMLID_289_" class="st1" d="M861.3,143.1l-13.4-24.7h-3.7v24.7h-13.4V83.5h13.4v23.6h3.7l13.7-23.6h14.5L858.8,112
					l17.5,31.1H861.3L861.3,143.1z"/>
			</g>
		</g>
		<g>
			<path class="st1" d="M890.5,101.1V86.4h-5.3v-2.9h14v2.9h-5.1v14.7H890.5z"/>
			<path class="st1" d="M901.6,101.1V83.5h5.3l3.2,12l3.2-12h5.3v17.6h-3.4V87.3l-3.5,13.8h-3.4l-3.5-13.8v13.8H901.6z"/>
		</g>
	</g>
</g>
</svg>
