<?xml version="1.0" encoding="utf-8"?>
<!-- Generator: Adobe Illustrator 23.1.1, SVG Export Plug-In . SVG Version: 6.00 Build 0)  -->
<svg version="1.1" id="Layer_1" xmlns="http://www.w3.org/2000/svg" xmlns:xlink="http://www.w3.org/1999/xlink" x="0px" y="0px"
	 viewBox="0 0 937.8 339.4" style="enable-background:new 0 0 937.8 339.4;" xml:space="preserve">
<style type="text/css">
	.st0{fill:#444444;}
</style>
<path id="RawEngineering-logo" class="st0" d="M212.7,47.8c-25.5,6.7-48.3,18.4-60.7,39.8c-2.6,4.5-4.8,9.5-6.4,15
	c-80.1,41.5-23.9,141.3,6.4,197.8l0.7,1.2l51-58c-18.7-34.8-48.5-86.3-42.2-128.3c16.1-6.8,33.6-10.3,51.2-12.4
	c10.1-1.2,20.3-1.9,30.1-2.5L298,37.8C273.6,39.2,241.4,40.3,212.7,47.8z M181.5,241l-25.1,28.6c-1.4-2.6-2.9-5.5-4.4-8.5
	c-19.6-38.3-50-103.1-9.5-134.9c0.1,14.7,3.5,30.9,9.5,48.7C158.8,195.1,168.9,217.1,181.5,241z M234.1,82.6
	c-7.5,0.5-14.7,1.2-21.4,2c-15.9,1.9-29.8,4.6-41.9,8.2c8.2-10.8,21.8-19.3,41.9-25.4c11.7-3.5,25.6-6.2,41.9-8.1L234.1,82.6z
	 M415.5,165h-13.1l-16.6-50.4H399l11.1,35.2l11.1-30.8h7.1h5.1l10.6,30.8l10.1-35.2H467L450.3,165h-13l-9-26.8l-1.4-4.1L415.5,165z
	 M345.5,221.1c0-20.8-6.2-31.2-23.3-31.4h-0.5c-18.6,0-23.9,15.4-23.9,27.1c0,14,8.1,26.1,24.4,26.1h0c6.9,0,14.6-1.2,20.7-4
	l-4.1-9.6c-5.3,2.6-11,4.3-15.8,4.3c-0.3,0-0.5,0-0.8,0c-6.5-0.3-10.3-4.8-11.3-12.6h11.3L345.5,221.1L345.5,221.1z M321.5,199.2
	h0.6c6.2,0.2,10.8,3.6,11.3,12.9h-11.3h-11.3C311.3,201.7,317.5,199.2,321.5,199.2z M298,114.6h11.5l2,8.6c1.6-2.9,6-8.6,10.8-9.9
	c0.6-0.2,1.2-0.3,1.8-0.3c4.2,0,6.6,0.9,9.6,2.4l-4.3,10.3c-1.8-1.4-4.4-3-7.1-3.1H322c-5.8,0-9,9.2-10.3,12.2V165h-12.5v-39.2
	C299.3,120.9,298.3,117.2,298,114.6z M396.9,209.7v31.8h-12.4v-32.3c0-5-0.4-10-7.8-10c-5.2,0-8.7,4.7-11,9.5v32.9h-6h-6.5v-39.7
	c0-4.2-0.9-7.2-1.3-10.7h7.8h3.7l2,6.6c2.1-2.2,6.4-8.2,13.4-8.2C393.5,189.5,396.9,198.1,396.9,209.7z M455.6,189.3
	c-5.3,0.2-14.9,1-19,1.3c-2.7-0.5-4.7-1-8.3-1h-0.2c-19.8,0-22.8,13.2-22.8,19.1c0,6.9,3.7,11.3,5.1,12.9c-3,2.2-5.8,5.2-5.8,8.8
	c0,4.1,2,7.4,6.4,9.4c-2.8,1.1-8.2,3.7-8.2,9.6c0,8.4,6,14.1,25.6,14.2h0.7c12.7,0,25.8-3.5,25.8-14.5c0-8.3-4.6-13.2-24.7-14.7
	l-1.8-0.2c-11-0.9-13.3-1.8-13.3-4.4c0-1.9,1.1-3,2.3-3.7c2.6,1.2,9,1.8,11,1.8h0c17.7,0,22.9-10.7,22.9-19.3
	c0-4.7-3.1-9.2-5.1-11.1h6.2L455.6,189.3z M419.2,244c3.5,0.1,6.5,0.3,9.1,0.5c10.7,0.9,13.7,2.9,13.7,4.6c0,4.1-3.1,5.4-13,5.4
	h-0.7c-6.6-0.1-12.7-2-12.7-5.5C415.6,247,416.9,245.1,419.2,244z M428.5,218.7h-0.2c-5.8,0-10.2-2.7-10.2-9.8
	c0-7.8,5.1-9.9,10.2-9.9h0c6.9,0,10.1,3.7,10.1,9.5C438.5,213.2,436.2,218.7,428.5,218.7z M581,221.1c0-20.8-6.2-31.2-23.3-31.4
	h-0.5c-18.6,0-23.9,15.4-23.9,27.1c0,14,8.1,26.1,24.4,26.1h0c6.9,0,14.6-1.2,20.7-4l-4.1-9.6c-5.3,2.6-11,4.3-15.8,4.3
	c-0.3,0-0.5,0-0.8,0c-6.4-0.3-10.3-4.8-11.3-12.6h11.3L581,221.1L581,221.1z M557.1,199.2h0.6c6.2,0.2,10.8,3.6,11.3,12.9h-11.3
	h-11.3C546.8,201.7,553,199.2,557.1,199.2z M681,191.1h12.4v50.4H681V191.1z M680.7,170.1h13.1v10.8h-13.1V170.1z M665.7,189.5
	c4.2,0,6.6,0.9,9.6,2.4l-4.3,10.3c-1.9-1.4-4.5-3.1-7.3-3.1c-5.8,0-9,9.2-10.3,12.2v30.1H641v-39.2c0-5-1-8.7-1.3-11.3h11.5l2,8.6
	C654.9,196.5,660.3,189.5,665.7,189.5z M744.8,209.7v31.8h-12.5v-32.3c0-5-0.4-10-7.8-10c-5.2,0-8.7,4.7-11,9.5v32.9H701v-39.7
	c0-4.2-0.9-7.2-1.3-10.7h11.5l2,6.6c2.1-2.2,6.4-8.2,13.4-8.2C741.4,189.5,744.8,198.1,744.8,209.7z M803,189.3
	c-5.3,0.2-14.9,1-19,1.3c-2.7-0.5-4.7-1-8.3-1h-0.2c-19.8,0-22.8,13.2-22.8,19.1c0,6.9,3.7,11.3,5.1,12.9c-3,2.2-5.8,5.2-5.8,8.8
	c0,4.1,2,7.4,6.4,9.4c-2.8,1.1-8.2,3.7-8.2,9.6c0,8.4,6.1,14.1,25.6,14.2h0.7c12.7,0,25.8-3.5,25.8-14.5c0-8.3-4.6-13.1-24.7-14.7
	l-1.8-0.1c-11-0.9-13.3-1.8-13.3-4.4c0-1.9,1.1-3,2.3-3.7c2.6,1.2,9,1.8,11,1.8h0c17.7,0,22.9-10.7,22.9-19.3
	c0-4.7-3.1-9.2-5.1-11.1h6.2L803,189.3z M766.7,244c3.5,0.1,6.5,0.3,9.1,0.5c10.7,0.9,13.7,2.9,13.7,4.6c0,4.1-3.1,5.4-13,5.4h-0.7
	c-6.6-0.1-12.7-2-12.7-5.5C763,247,764.4,245.1,766.7,244z M775.9,218.7h-0.2c-5.8,0-10.2-2.7-10.2-9.8c0-7.8,5.1-9.9,10.2-9.9h0
	c6.9,0,10.1,3.7,10.1,9.5C786,213.2,783.7,218.7,775.9,218.7z M526.8,209.7v31.8h-12.4v-32.3c0-5-0.4-10-7.8-10
	c-5.2,0-8.7,4.7-11,9.5v32.9h-12.4v-39.7c0-4.2-0.9-7.2-1.3-10.7h11.5l2,6.6c2.1-2.2,6.4-8.2,13.4-8.2
	C523.4,189.5,526.8,198.1,526.8,209.7z M462,191.1h12.4v50.4H462V191.1z M633.9,221.1c0-20.8-6.2-31.2-23.3-31.4H610
	c-18.6,0-23.9,15.4-23.9,27.1c0,14,8.1,26.1,24.4,26.1h0c6.9,0,14.6-1.2,20.7-4l-4.1-9.6c-5.3,2.6-11,4.3-15.8,4.3
	c-0.3,0-0.5,0-0.8,0c-6.5-0.3-10.3-4.8-11.3-12.6h11.3L633.9,221.1L633.9,221.1z M609.9,199.2h0.6c6.2,0.2,10.8,3.6,11.3,12.9h-11.3
	h-11.3C599.7,201.7,605.8,199.2,609.9,199.2z M461.6,170.1h13.1v10.8h-13.1V170.1z M364.8,133.4c-1.8,0-3.6,0-5.2,0.2
	c-17.3,1.2-22.5,8.9-22.5,18.2c0,9.6,7.8,14.7,20.6,14.7c0.6,0,1.3,0,1.9-0.2c4.5-0.8,7.8-4,10.3-6.4l1.9,5.1h11.8
	c-0.7-5.6-2-11.5-2-15.4v-20.3c0-11-7.9-16.1-19.1-16.1c-1,0-1.9,0-2.9,0c-7.1,0.3-14.6,1.6-20.5,3.7l4.3,10.3
	c4.3-2.1,10.1-4,16.2-4.3c0.7,0,1.5-0.1,2.2-0.1c6.4,0,7.2,4.3,7.2,8.2v2.4H364.8z M369.1,141.8v9.9c-1.9,2.6-5.1,5-9.5,5.2
	c-0.2,0-0.4,0-0.5,0c-4.6,0-9-1.3-9-5.6c0-4.7,2.6-7.9,9.5-9c1.9-0.3,4.1-0.5,6.7-0.5H369.1z M823.5,188.9c-5.5,0-9.9,4.4-9.9,9.9
	s4.4,9.9,9.9,9.9c5.5,0,9.9-4.4,9.9-9.9C833.4,193.3,829,188.9,823.5,188.9z M823.5,206.8c-4.4,0-8-3.6-8-8c0-4.4,3.6-8,8-8
	c4.4,0,8,3.6,8,8C831.5,203.2,827.9,206.8,823.5,206.8z M826.1,199.5c-0.3-0.3-0.6-0.5-0.9-0.5c0.6-0.2,1.1-0.5,1.4-0.9
	c0.3-0.4,0.5-0.9,0.5-1.6c0-0.9-0.3-1.6-0.9-2c-0.6-0.4-1.5-0.6-2.8-0.6h-3.8v9.7h2.5v-3.7h0.7c0.4,0,0.8,0.1,1,0.3
	c0.3,0.2,0.5,0.5,0.7,1l1.2,2.4h2.6l-1.3-2.8C826.7,200.1,826.4,199.7,826.1,199.5z M824.3,197.8c-0.2,0.2-0.6,0.3-1.1,0.3h-1.1
	v-2.5h1.1c0.5,0,0.9,0.1,1.1,0.3c0.2,0.2,0.3,0.5,0.3,1C824.6,197.3,824.5,197.6,824.3,197.8z"/>
</svg>
